<?xml version="1.0" encoding="UTF-8" standalone="no"?><!DOCTYPE svg PUBLIC "-//W3C//DTD SVG 1.1//EN" "http://www.w3.org/Graphics/SVG/1.1/DTD/svg11.dtd"><svg width="100%" height="100%" viewBox="0 0 246 244" version="1.1" xmlns="http://www.w3.org/2000/svg" xmlns:xlink="http://www.w3.org/1999/xlink" xml:space="preserve" xmlns:serif="http://www.serif.com/" style="fill-rule:evenodd;clip-rule:evenodd;stroke-linejoin:round;stroke-miterlimit:2;"><rect id="Artboard2" x="0" y="-0" width="245.463" height="243.468" style="fill:none;"/><path d="M109.371,17.336c0,-0 35.993,-13.029 55.803,7.722c19.81,20.751 22.126,44.289 22.126,44.289c-0,-0 12.563,47.963 -6.122,67.884c-18.685,19.921 -68.462,25.016 -71.807,25.016c-3.344,0 -55.877,3.673 -61.301,-25.157c-5.424,-28.831 0.452,-77.893 17.383,-92.962c16.932,-15.07 43.918,-26.792 43.918,-26.792Z" style="fill:#e90000;"/><path d="M226.413,137.572l-0.12,0.459c-0.259,1.665 0.188,3.565 -2.066,6.741c-2.475,3.489 -3.059,3.205 -3.892,7.421c0.232,-4.02 -0.064,-3.989 -1.656,-7.667l-1.067,3.001l-1.542,-2.429c-0.101,1.028 -0.627,6.437 -4.199,12.211c-0.649,1.049 -3.731,-0.922 -4.74,-4.132c-0.379,3.877 -0.836,3.71 -1.416,7.597c-5.376,-4.991 -5.07,-5.387 -11.66,-8.495c3.867,7.579 3.329,7.731 5.192,16.018c-2.875,-1.495 -4.384,-1.95 -4.783,-2.07c0.013,0.008 4.422,1.68 8.345,11.606c-2.751,-1.644 -4.971,-3.787 -8.839,-4.043c2.904,2.074 2.007,2.939 5.95,6.294c1.37,1.165 3.806,7.468 3.277,8.765c-1.293,3.171 -1.663,-0.229 -3.883,-2.768c0.845,5.364 2.568,7.213 -0.37,6.864c-3.087,-0.367 -8.066,-3.374 -8.717,-3.767c-0.306,4.94 -1.488,4.479 -5.021,8.651c-0.697,-2.937 -0.74,-2.866 -2.079,-5.526c-0.792,7.915 0.752,10.542 -6.895,14.775c-4.292,2.375 -4.46,1.904 -9.34,1.906c-1.374,2.899 -1.15,3 -3.539,5.172l-1.858,-3.147c-0.339,2.853 -0.266,2.838 -0.571,4.004c-5.683,-3.973 -5.555,0.082 -7.819,1.834c-1.609,1.246 -3.799,-3.949 -6.636,-0.784c-2.825,3.152 -3.444,2.118 -11.835,4.547c-1.758,0.509 -2.45,1.542 -6.35,3.818c-0.469,-0.263 -5.705,-3.201 -6.272,-2.433c-0.312,0.422 1.85,4.669 -4.399,7.545c-3.495,1.609 -2.721,-0.937 -2.951,-4.74c-1.728,4.36 -2.013,4.159 -4.226,8.321c-0.426,-2.577 -0.419,-2.525 -1.259,-5.005c-1.473,3.845 -1.486,3.869 -4.6,6.502c0.493,-4.376 -0.425,-4.323 -0.315,-8.762c-5.088,4.308 -4.142,4.975 -6.723,11.163c-2.598,-0.231 -2.534,-0.321 -5.162,-0.584c0.003,-0.344 0.018,-2.773 0.133,-4.296l-2.205,3.563c-3.694,-0.201 -3.748,-0.128 -3.903,-0.312c-2.393,-2.842 -2.401,-2.779 -5.199,-5.187c3.135,-0.386 3.058,-0.677 6.233,-0.589c-9.335,-3.962 -8.757,-5.188 -9.633,-5.207c-3.533,-0.077 -3.456,-0.378 -6.678,-1.875c1.736,0.262 1.723,0.276 1.874,0.283c4.513,0.221 4.438,0.13 4.823,0.157c-1.56,-0.91 -1.529,-0.833 -3.341,-1.05c-1.765,-3.382 -9.045,-9.63 -17.308,-14.097l2.72,-1.521c-1.893,-0.515 -1.816,-0.526 -3.683,-0.885c0.22,-0.169 1.277,-0.986 2.729,-2.138c-2.39,-0.252 -10.022,-0.007 -11.246,-2.035c-1.229,-2.037 1.638,-4.898 -3.001,-7.64c-2.516,-1.486 -5.622,-10.554 -0.711,-13.789c-4.965,-0.511 -5.27,0.39 -9.36,-2.4c2.992,-0.203 2.928,-0.34 5.962,-0.476c-1.079,-0.79 -11.281,-8.265 -10.751,-12.792c0.436,-3.722 0.864,-3.603 1.319,-7.289l0.991,3.609c2.059,-4.135 -0.512,-4.426 0.238,-6.764c1.489,-4.649 2.878,-4.002 4.601,-10.191c-6.248,4.229 -9.244,10.516 -9.766,11.612c-0.714,-2.666 -1.07,-2.448 -2.823,-4.545c-1.638,-1.958 -2.019,-6.247 -3.497,-10.815l-0.072,4.32c-2.794,-3.317 -1.679,-3.871 -3.928,-7.596c-0.614,-1.018 -1.969,-1.244 1.468,-9.733c-1.468,0.652 -1.283,0.838 -1.866,2.284c-0.712,-3.177 -0.839,-3.115 -0.526,-6.28c0.09,-0.91 3.452,-0.239 4.087,-4.477c0.933,-6.231 5.035,-4.381 8.145,-14.96c-3.133,1.578 -4.842,3.36 -5.196,3.73c0.654,-2.412 8.986,-15.897 9.388,-16.899c3.12,-7.773 2.945,-9.054 8.464,-10.837l-2.761,0.168c0.872,-5.053 1.675,-5.971 5.239,-7.889c-0.121,0.015 -4.643,0.473 -5.047,0.514c3.981,-5.503 7.363,-12.999 13.743,-17.877c2.676,-2.047 3.098,-3.967 3.192,-4.391l-3.322,1.982c2.578,-6.589 9.597,-10.591 12.577,-14.977l-2.732,-0.805c2.617,-1.58 2.672,-1.246 5.464,-2.363c0.665,-0.266 3.957,-1.583 7.407,-5.024c0.216,-0.215 0.039,-0.662 0.255,-0.876c-1.762,0.689 -1.695,0.722 -3.461,1.422c0.733,-0.517 0.925,-0.212 9.368,-6.148l-2.028,-1.267c0.532,-0.426 0.469,-0.388 3.383,-2.958l-4.308,-0.253c4.166,-2.303 3.979,-2.573 8.478,-4.144c-2.881,-1.482 -2.832,-1.419 -5.925,-2.168c10.361,-0.305 10.373,-0.049 11.256,-0.229c3.814,-0.776 3.667,-1.078 7.463,-1.877c-1.83,-0.802 -1.797,-0.74 -3.668,-1.444c5.533,1.091 6.294,-0.515 8.745,-1.225c2.955,-0.855 3.295,0.108 5.668,-1.804c3.264,-2.63 11.921,4.082 15.142,2.091c4.277,-2.644 4.59,-0.595 7.392,3.567c5.612,-4.778 9.928,-1.148 16.102,0.31c1.995,0.471 1.521,1.092 2.771,2.318c3.051,2.992 3.499,2.536 7.668,1.6c4.125,-0.927 10.388,0.39 11.819,0.506c-3.437,0.362 -3.402,0.268 -6.563,0.808c10.985,4.651 11.89,3.324 17.919,6.957c-0.811,-0.408 -6.313,-3.177 -10.845,-3.355c6.85,4.437 11.419,7.447 15.336,11.43c-3.359,-1.095 -3.268,-1.11 -6.711,-1.767c0.361,0.365 9.636,9.722 5.173,3.802c-0.541,-0.719 4.441,5.89 7.183,8.656c2.944,2.969 2.178,8.357 6.552,15.144c2.669,4.14 2.368,8.764 5.501,10.137c1.263,0.554 3.545,1.555 14.877,8.722l-3.3,0.004c9.014,5.745 10.49,13.758 14.017,16.651c3.525,2.89 5.587,2.173 5.727,10.517c6.099,5.683 6.226,5.769 7.636,11.818c-0.125,-0.17 -0.532,-2.786 -6.028,-5.221c1.993,4.118 2.811,4.049 1.991,8.543c-2.169,-2.379 -2.635,-1.507 -5.653,-2.71c0.164,4.118 2.494,4.433 0.094,7.781c-0.423,-1.602 -0.369,-1.58 -1.276,-2.997c-0.973,4.936 -1.247,4.871 -1.27,5.306c-0.187,3.481 0.197,3.65 -1.898,6.426c-0.094,-0.13 -1.639,-2.266 -1.713,-1.049c-0.258,4.265 0.194,4.22 0.376,4.862c0.307,1.083 -0.365,0.717 -1.451,1.03Zm-104.252,-116.562c-1.455,-0.143 -6.393,2.643 -9.128,2.045c-1.35,-0.295 -10.22,4.404 -11.596,4.594c-6.207,0.856 -8.751,4.32 -10.255,2.351c-1.419,-1.86 -2.271,-0.699 -2.432,1.68l-1.042,-1.249c0.091,1.191 1.255,1.439 0.153,1.988l-3.426,-0.015l2.015,0.496c-9.926,7.373 -8.472,9.426 -9.921,10.151c-5.409,2.706 -2.998,6.245 -4.987,10.104c-3.161,6.131 -0.492,11.046 -0.612,12.895c-1.216,18.791 -6.99,27.964 -5.237,33.494c2.094,6.607 1.002,9.2 -0.707,15.21l2.224,-0.464c-2.616,5.594 -2.667,7.977 -2.682,8.706c-0.047,2.203 -0.392,2.055 -0.797,4.182c2.135,-0.785 2.138,-1.006 4.34,-0.307c-1.744,4 -2.286,3.766 -3.051,8.067c2.82,-2.464 2.803,-2.447 3.046,-2.661c0.682,-0.603 0.579,-0.715 0.657,-0.718c2.968,-0.09 0.782,9.182 3.305,11.766c3.157,3.235 3.695,6.16 7.571,12.008c14.363,2.768 14.438,3.216 21.419,1.543c3.445,-0.826 3.371,0.601 6.035,0.595c9.428,-0.021 9.359,-2.476 16.471,-1.049c3.693,0.741 4.224,0.333 8.822,-1.359c4.204,-1.546 4.475,0.826 8.703,-0.583c0.688,-1.601 0.95,-4.011 3.579,-4.905c3.256,-1.107 1.901,-5.802 8.263,-6.312c5.535,-0.443 4.775,-2.049 6.906,-4.111c4.628,-4.478 3.861,-5.498 9.788,-7.835c-0.6,-2.477 0.262,-19.182 1.566,-21.006c2.331,-3.263 2.145,-3.305 3.097,-7.187c2.65,2.284 2.624,2.266 5.758,3.928c-2.078,-3.379 -2.253,-3.356 -2.523,-7.342c-0.303,-4.485 -0.472,-4.412 -1.81,-8.721c2.314,1.706 2.295,1.698 2.52,1.85l-3.361,-6.184c-2.341,-3.374 -0.38,-3.968 -1.909,-7.762c-1.701,-4.22 -5.27,-2.87 -4.415,-7.501c1.515,-8.213 0.974,-8.302 1.258,-8.969c2.296,-5.383 -0.594,-6.467 1.126,-9.952c1.711,-3.465 -0.213,-3.455 -0.91,-7.24c-1.317,-7.143 -3.015,-6.386 -3.951,-8.285c-1.537,-3.119 -9.903,-7.586 -16.02,-9.524c-7.354,-2.331 -7.088,-3.367 -10.486,-3.37c-9.314,-0.008 -8.132,-2.134 -17.364,-3.042Z" style="fill:#ffe235;"/><g><path d="M44.163,149.144c6.374,-5.743 6.408,-5.629 12.639,-11.58c1.427,-1.362 1.777,-0.406 6.896,-1.319c-3.372,-0.988 -4.278,-1.07 -8.08,-1.267c3.622,-5.062 11.479,-4.74 12.754,-4.827c9.012,-12.374 12.777,-9.795 15.245,-9.885c-2.823,2.419 -3.267,1.769 -3.826,2.693c-0.774,1.283 -0.817,1.152 -2.062,1.919c11.275,-0.911 12.491,-9.6 27.228,-6.185c12.593,2.918 21.59,-4.91 36.907,6.736c1.969,1.497 2.964,-0.608 4.429,1.369c7.36,9.929 12.487,4.094 19.426,14.274c1.905,2.795 3.833,3.208 4.642,5.793c0.699,2.233 4.803,2.223 8.17,8.67c0.395,0.757 1.293,2.476 2.647,10.34c-0.44,-0.342 -2.563,-1.991 -5.517,-4.244c3.354,5.171 2.641,5.42 3.653,11.485c1.496,8.964 -3.506,-1.846 -3.648,-2.154l-0.066,3.797c-0.702,-0.888 -0.541,-1.76 -8.934,-8.283c0.301,0.732 1.535,2.748 0.9,5.028c-1.11,3.98 -2.67,1.407 -5.611,-1.442c0.503,2.471 0.629,2.38 1.466,4.779c-3.072,-0.873 -3.158,-0.677 -5.396,-2.839c-1.086,0.978 -1.054,1.551 -1.913,0.988c-5.906,-3.872 -5.205,-4.657 -10.656,-9.177c-0.15,0.108 -1.868,1.35 -1.868,1.35c-0.09,0.174 -0.887,6.233 -1.381,6.366c-2.629,0.709 -5.367,-4.745 -5.645,-5.298c-5.093,1.856 -5.022,2.702 -11.788,1.802c4.295,-3.656 5.115,-3.356 5.9,-8.918c-0.58,0.46 -2.217,1.758 -8.61,3.4c1.527,-1.531 3.054,-3.062 4.581,-4.594c-0.333,-1.19 -0.206,-1.167 -0.871,-2.279c-0.412,0.606 -2.977,3.546 -6.97,11.117l-1.422,0.371c0.447,-2.923 0.638,-2.823 1.352,-5.751c-5.435,4.328 -5.052,5.037 -11.704,6.867c0.865,-1.074 1.73,-2.148 2.594,-3.221c-5.342,1.364 -5.13,1.889 -9.071,2.399c5.648,-1.485 6.971,-1.934 9.936,-8.088c-9.954,1.651 -18.782,4.442 -24.253,3.633c-1.463,-0.217 -2.923,-0.488 -4.4,-0.581c-0.747,-0.047 -0.693,-0.002 -9.36,-0.029c1.401,1.83 1.253,2.062 3.577,2.545c0.449,0.094 0.331,0.424 5.431,1.824c-6.806,-0.27 -10.875,0.63 -20.263,-2.962c-0.665,0.561 -4.12,3.473 -9.674,4.96c0.287,-1.174 0.901,-3.681 7.876,-12.895c-3.706,4.281 -5.277,5.805 -10.034,7.344c1.358,-4.603 1.403,-4.509 3.884,-8.674c-6.646,1.362 -8.669,3.486 -9.225,4.071c2.343,-6.058 4.373,-4.806 7.044,-10.746c-7.992,5.101 -8.464,4.041 -12.299,5.964c1.153,-3.617 1.515,-4.458 5.37,-4.646Z" style="fill:#ff6a95;"/><path d="M110.301,85.786c2.819,1.18 3.03,0.8 3.411,1.838c4.715,12.859 10.319,3.322 17.753,1.196c6.546,-1.873 16.905,-8.67 23.426,-7.459c0.973,0.18 11.778,6.977 12.527,7.597c-11.04,-11.931 -11.046,-11.98 -12.186,-12.514c-1.068,-0.5 -4.13,-1.933 -13.822,-3.51c1.213,1.278 1.193,1.236 2.119,2.921c-5.224,-1.277 -5.174,-1.079 -10.519,-1.358c0.046,0.048 0.001,0.002 2.735,2.655c-12.394,-1.067 -13.914,1.313 -14.711,1.573c0.523,0.421 1.047,0.842 1.571,1.263c-0.936,0.117 -7.193,0.902 -11.634,2.272c-1.957,0.604 -1.886,1.491 -1.021,4.11" style="fill:#ff6a95;"/><path d="M105.741,94.273c-2.643,-1.315 -2.348,-1.867 -4.113,-4.857c-0.532,-0.901 -1.534,-4.185 -1.649,-4.561c-5.683,-1.429 -10.159,0.872 -11.632,-3.634c-0.373,-1.14 -1.546,-4.726 -9.062,-8.884c-4.11,-2.274 -18.463,10.1 -20.957,17.561c5.884,-0.003 5.815,-0.527 11.543,-2.302c9.927,-3.077 13.068,1.286 18.103,3.482c1.397,0.61 17.402,7.589 18.134,3.086" style="fill:#ff6a95;"/></g></svg>